<svg width="134" height="47" viewBox="0 0 134 47" fill="none" xmlns="http://www.w3.org/2000/svg">
<g clip-path="url(#clip0_1_11)">
<path d="M44.6517 39.217C43.4481 39.1126 42.7024 38.7862 42.4147 38.2379C42.1269 37.6895 41.9829 36.9845 41.9829 36.1229C41.9829 35.1829 42.1792 34.034 42.5716 32.6762C42.9641 31.2923 43.4481 29.7909 44.0238 28.172C44.6255 26.5532 45.2274 24.9342 45.8291 23.3154C45.3582 23.3415 44.8218 23.3937 44.22 23.472C43.6444 23.5504 42.7286 23.6809 41.4727 23.8637C41.525 22.8715 42.0352 22.1795 43.0034 21.7879C43.9976 21.3701 45.2012 21.1482 46.6141 21.122C47.3467 19.1115 48.0924 17.1532 48.8511 15.247C49.6361 13.3148 50.408 11.5523 51.1667 9.95953C50.905 9.9334 50.6434 9.92036 50.3818 9.92036C50.1463 9.89423 49.8977 9.88119 49.6361 9.88119C47.9615 9.88119 46.6664 10.0509 45.7506 10.3904C44.8349 10.7298 44.2069 11.252 43.8668 11.957C43.5266 12.662 43.3566 13.5629 43.3566 14.6595C43.3566 15.7301 43.5266 16.7615 43.8668 17.7537C42.9772 17.597 42.3231 17.2576 41.9044 16.7354C41.4858 16.187 41.2765 15.5082 41.2765 14.6987C41.2765 13.3409 41.7605 12.1529 42.7286 11.1345C43.6967 10.0901 44.9919 9.28066 46.6141 8.70619C48.2624 8.10566 50.0809 7.80536 52.0694 7.80536C53.4561 7.80536 54.7905 7.90982 56.0726 8.11869C57.3806 8.30149 58.65 8.39286 59.8795 8.39286C60.9263 8.39286 61.894 8.26232 62.7838 8.00119C61.8155 9.09786 61.0048 9.82899 60.3505 10.1945C59.6962 10.5601 59.029 10.7429 58.3489 10.7429C57.7473 10.7429 56.9623 10.6645 55.9941 10.5079C55.0521 10.3251 53.9794 10.1815 52.7758 10.077C52.4357 10.9387 52.0563 11.9832 51.6377 13.2104C51.219 14.4115 50.7873 15.704 50.3425 17.0879C49.8977 18.4457 49.4529 19.8034 49.0081 21.1612C50.3163 21.2395 51.5461 21.357 52.6973 21.5137C53.8747 21.6704 54.9344 21.7617 55.8763 21.7879C55.667 22.1012 55.4184 22.3492 55.1306 22.532C54.869 22.6887 54.4896 22.8062 53.9925 22.8845C53.4953 22.9629 52.802 23.0282 51.9124 23.0804C51.049 23.1065 49.8846 23.1326 48.4194 23.1587C48.2624 23.707 48.0662 24.3598 47.8307 25.117C47.5952 25.8742 47.3859 26.5923 47.2028 27.2712C47.0196 27.9501 46.8757 28.4462 46.7711 28.7595C46.1954 30.7701 45.6983 32.6501 45.2797 34.3995C44.8872 36.149 44.6779 37.7548 44.6517 39.217ZM60.8775 36.9845C59.7522 36.9845 58.9409 36.5929 58.4442 35.8095C57.9732 35.0523 57.7378 34.0992 57.7378 32.9504C57.7378 31.697 57.9732 30.2087 58.4442 28.4854C58.9152 26.762 59.5297 24.9473 60.2888 23.0412C61.0737 21.1351 61.9237 19.2812 62.8398 17.4795C63.7554 15.6517 64.671 13.9937 65.5871 12.5054C66.5027 11.017 67.3398 9.82899 68.0989 8.94119C68.8839 8.0534 69.4984 7.60953 69.9435 7.60953C70.2311 7.60953 70.4666 7.77923 70.65 8.11869C70.8327 8.43203 70.9768 8.82369 71.0817 9.29369C71.186 9.73756 71.2387 10.1423 71.2387 10.5079C71.2387 11.2129 71.0553 12.1398 70.6892 13.2887C70.3489 14.4115 69.8516 15.6779 69.1978 17.0879C68.5699 18.4717 67.8107 19.8817 66.9215 21.3179C66.0581 22.7279 65.1027 24.0857 64.0565 25.3912C63.0361 26.6967 61.9501 27.8195 60.799 28.7595C60.642 29.4645 60.5108 30.1565 60.4065 30.8354C60.328 31.4882 60.2888 32.1148 60.2888 32.7154C60.2888 34.7259 60.864 35.7312 62.0157 35.7312C62.7221 35.7312 63.4151 35.4179 64.0957 34.7912C64.8022 34.1645 65.4559 33.3812 66.0581 32.4412C66.686 31.4751 67.222 30.4829 67.6672 29.4645L68.2559 29.7779C67.2091 31.9973 66.071 33.7598 64.8414 35.0654C63.6113 36.3448 62.2904 36.9845 60.8775 36.9845ZM61.1522 27.4279C62.0678 26.514 62.9576 25.4695 63.821 24.2945C64.6844 23.0934 65.4823 21.8532 66.2151 20.5737C66.9737 19.2942 67.6409 18.054 68.2167 16.8529C68.7919 15.6517 69.2371 14.5812 69.5511 13.6412C69.865 12.6751 70.022 11.9309 70.022 11.4087C70.022 11.1476 69.9828 10.9779 69.9043 10.8995C69.8516 10.8212 69.7994 10.782 69.7473 10.782C69.5376 10.782 69.1715 11.1215 68.6484 11.8004C68.1511 12.4532 67.5624 13.3409 66.8823 14.4637C66.2016 15.5865 65.5086 16.8659 64.8022 18.302C64.0957 19.7382 63.4151 21.2395 62.7614 22.8062C62.1334 24.3729 61.5968 25.9134 61.1522 27.4279ZM69.6032 37.0629C68.4779 37.0629 67.6801 36.7104 67.2091 36.0054C66.7376 35.3265 66.5021 34.4909 66.5021 33.4987C66.5021 32.6892 66.6333 31.8537 66.8946 30.992C67.1564 30.1304 67.4968 29.3209 67.9156 28.5637C68.3602 27.8065 68.8441 27.1929 69.3677 26.7229C69.9172 26.2529 70.4666 26.0179 71.0161 26.0179C71.2516 26.0179 71.5263 26.0832 71.8403 26.2137C71.6048 26.4226 71.3166 26.8142 70.9768 27.3887C70.6629 27.937 70.3618 28.5767 70.0742 29.3079C69.786 30.0129 69.5376 30.7179 69.3285 31.4229C69.1451 32.1279 69.0537 32.7284 69.0537 33.2245C69.0537 34.0079 69.1844 34.5823 69.4462 34.9479C69.7075 35.2873 70.0478 35.457 70.4666 35.457C71.0161 35.457 71.6698 35.1698 72.429 34.5954C73.1876 33.9948 73.9333 33.2376 74.666 32.3237C73.9333 31.7232 73.3574 30.9398 72.9392 29.9737C72.5467 28.9815 72.3505 27.9762 72.3505 26.9579C72.3505 26.0962 72.494 25.2867 72.7822 24.5295C73.0962 23.7723 73.5408 23.1717 74.1166 22.7279C74.6918 22.2579 75.3854 22.0229 76.1967 22.0229C77.2692 22.0229 77.9886 22.3101 78.3553 22.8845C78.7214 23.459 78.9047 24.177 78.9047 25.0387C78.9047 26.057 78.6558 27.1929 78.159 28.4462C77.6617 29.6734 77.0338 30.8615 76.2752 32.0104C76.7461 32.2715 77.2429 32.402 77.7665 32.402C78.3681 32.402 79.1009 32.2062 79.9644 31.8145C80.8278 31.3967 81.495 30.6526 81.966 29.582L82.4369 29.9737C81.9133 31.2009 81.1676 32.0757 80.1999 32.5979C79.2579 33.094 78.3552 33.342 77.4918 33.342C76.7854 33.342 76.1574 33.2115 75.608 32.9504C74.7182 34.1254 73.737 35.1045 72.6639 35.8879C71.6177 36.6712 70.5973 37.0629 69.6032 37.0629ZM75.3725 31.3054C76.0262 30.3392 76.5628 29.334 76.981 28.2895C77.4262 27.219 77.6488 26.2137 77.6488 25.2737C77.6488 24.5165 77.5311 23.9682 77.2956 23.6287C77.0859 23.2632 76.8112 23.0804 76.4714 23.0804C75.9477 23.0804 75.4117 23.459 74.8623 24.2162C74.3128 24.9734 74.0381 25.9265 74.0381 27.0754C74.0381 27.8326 74.1424 28.6029 74.3521 29.3862C74.5876 30.1434 74.9273 30.7832 75.3725 31.3054ZM92.2969 37.337C91.4856 37.337 90.9232 36.9584 90.6092 36.2012C90.3216 35.4701 90.1775 34.5823 90.1775 33.5379C90.1775 33.0156 90.2039 32.4542 90.256 31.8537C90.3082 31.227 90.3738 30.6134 90.4523 30.0129C89.8764 31.1617 89.2485 32.2715 88.5684 33.342C87.9141 34.4126 87.2211 35.2873 86.4883 35.9662C85.7555 36.6451 84.984 36.9845 84.1728 36.9845C83.3093 36.9845 82.6029 36.5929 82.0534 35.8095C81.504 35.0262 81.2292 34.0992 81.2292 33.0287C81.2292 32.2715 81.347 31.3967 81.5825 30.4045C81.8443 29.4123 82.1583 28.4332 82.5244 27.467C82.8905 26.5009 83.2701 25.7045 83.6625 25.0779C84.055 24.4512 84.3953 24.1379 84.683 24.1379C84.8136 24.1379 85.0883 24.2162 85.5072 24.3729C85.926 24.5034 86.1351 24.6862 86.1351 24.9212C85.8475 25.3651 85.4943 26.044 85.0754 26.9579C84.6566 27.8717 84.2905 28.864 83.9765 29.9345C83.6626 30.979 83.5056 31.932 83.5056 32.7937C83.5056 33.0026 83.5319 33.329 83.584 33.7729C83.6362 34.1907 83.7539 34.5692 83.9373 34.9087C84.1464 35.2482 84.4604 35.4179 84.8792 35.4179C85.4808 35.4179 86.1222 35.0392 86.8023 34.282C87.4824 33.5248 88.163 32.5717 88.8431 31.4229C89.5232 30.274 90.1646 29.112 90.7662 27.937C90.9754 26.8665 91.1458 26.0832 91.2764 25.587C91.4334 25.0909 91.5904 24.7776 91.7474 24.647C91.9044 24.4904 92.1006 24.412 92.3361 24.412C92.6764 24.412 92.9512 24.4904 93.1603 24.647C93.3694 24.7776 93.4743 24.9865 93.4743 25.2737C93.4743 25.352 93.4479 25.4957 93.3958 25.7045C93.2124 26.3312 93.0297 27.1276 92.8463 28.0937C92.6893 29.0337 92.5587 30.0129 92.4538 31.0312C92.349 32.0495 92.2969 33.0026 92.2969 33.8904C92.2969 35.1698 92.5845 35.8095 93.1603 35.8095C93.5528 35.8095 94.0108 35.5745 94.5339 35.1045C95.057 34.6084 95.5936 33.9687 96.1431 33.1854C96.7189 32.3759 97.2683 31.5012 97.7914 30.5612C98.3409 29.6212 98.8247 28.6942 99.2436 27.7804C99.2436 26.4226 99.3349 25.3912 99.5183 24.6862C99.7274 23.9551 99.9763 23.459 100.264 23.1979C100.578 22.9367 100.892 22.8062 101.206 22.8062C101.703 22.8062 102.056 22.989 102.266 23.3545C102.501 23.694 102.619 24.0073 102.619 24.2945C102.619 24.4773 102.58 24.6732 102.501 24.882C102.423 25.0648 102.318 25.2737 102.187 25.5087C101.978 25.9004 101.768 26.4095 101.559 27.0362C101.35 27.6367 101.245 28.4723 101.245 29.5429C101.245 29.9607 101.284 30.4045 101.363 30.8745C101.441 31.3445 101.611 31.7362 101.873 32.0495C102.135 32.3629 102.54 32.5195 103.09 32.5195C103.639 32.5195 104.162 32.3107 104.66 31.8929C105.183 31.449 105.693 30.6917 106.19 29.6212L106.7 30.0129C106.125 31.3184 105.484 32.1932 104.777 32.637C104.097 33.0809 103.443 33.3029 102.815 33.3029C101.14 33.3029 100.041 32.2062 99.5183 30.0129C98.864 31.214 98.1317 32.3759 97.3205 33.4987C96.5092 34.6215 95.6721 35.5354 94.8087 36.2404C93.9452 36.9715 93.1081 37.337 92.2969 37.337ZM109.691 37.5329C108.094 37.5329 106.891 37.089 106.08 36.2012C105.295 35.3395 104.902 34.269 104.902 32.9895C104.902 31.8145 105.19 30.5742 105.766 29.2687C106.367 27.9632 107.152 26.7359 108.121 25.587C109.115 24.4382 110.201 23.5112 111.378 22.8062C112.556 22.0751 113.72 21.7095 114.871 21.7095C115.473 21.7095 116.022 21.8662 116.519 22.1795C117.043 22.4929 117.304 23.1326 117.304 24.0987C117.304 25.0909 117.003 26.0309 116.402 26.9187C115.826 27.7804 115.054 28.5507 114.086 29.2295C113.144 29.9084 112.097 30.4698 110.946 30.9137C109.821 31.3315 108.696 31.5926 107.571 31.697C107.519 31.9582 107.48 32.2062 107.453 32.4412C107.427 32.6762 107.414 32.8982 107.414 33.107C107.414 33.9165 107.623 34.6737 108.042 35.3787C108.487 36.0576 109.311 36.397 110.515 36.397C111.64 36.397 112.752 36.0837 113.851 35.457C114.95 34.8042 115.97 33.9557 116.912 32.9112C117.854 31.8667 118.652 30.7179 119.306 29.4645L119.777 29.817C119.071 31.3837 118.168 32.7415 117.069 33.8904C115.996 35.0392 114.819 35.927 113.537 36.5537C112.281 37.2065 110.999 37.5329 109.691 37.5329ZM107.767 30.9529C108.474 30.7179 109.272 30.3784 110.161 29.9345C111.051 29.4645 111.901 28.9162 112.713 28.2895C113.55 27.6629 114.23 26.9709 114.753 26.2137C115.303 25.4565 115.578 24.6601 115.578 23.8245C115.578 23.5373 115.525 23.3154 115.421 23.1587C115.316 23.002 115.094 22.9237 114.753 22.9237C114.125 22.9237 113.458 23.1717 112.752 23.6679C112.045 24.1379 111.365 24.7645 110.711 25.5479C110.057 26.3312 109.468 27.1929 108.945 28.1329C108.422 29.0729 108.029 30.0129 107.767 30.9529ZM125.311 36.8279C124.422 36.8279 123.715 36.5929 123.192 36.1229C122.695 35.6529 122.446 35.0392 122.446 34.282C122.446 33.4987 122.629 32.6762 122.996 31.8145C123.362 30.9529 123.715 30.1042 124.055 29.2687C124.422 28.407 124.605 27.6367 124.605 26.9579C124.605 26.1223 124.356 25.5087 123.859 25.117C123.388 24.6992 122.904 24.3207 122.407 23.9812C121.805 25.5217 121.177 26.984 120.523 28.3679C119.869 29.7517 119.332 30.7962 118.914 31.5012L118.561 30.8354C118.927 30.1565 119.398 29.1642 119.974 27.8587C120.575 26.5532 121.164 25.0648 121.74 23.3937C121.478 23.1326 121.347 22.8192 121.347 22.4537C121.347 21.6704 121.569 21.0307 122.015 20.5345C122.459 20.0384 122.786 19.7904 122.996 19.7904C123.283 19.7904 123.44 19.9209 123.467 20.182C123.519 20.417 123.545 20.5998 123.545 20.7304C123.545 20.8609 123.467 21.122 123.31 21.5137C123.179 21.8792 123.113 22.1012 123.113 22.1795C123.113 22.5451 123.31 22.8845 123.702 23.1979C124.12 23.4851 124.591 23.8245 125.115 24.2162C125.638 24.5817 126.096 25.0387 126.489 25.587C126.907 26.1092 127.117 26.7882 127.117 27.6237C127.117 28.407 126.946 29.2034 126.606 30.0129C126.292 30.8223 125.965 31.5926 125.625 32.3237C125.311 33.0548 125.154 33.6945 125.154 34.2429C125.154 34.7129 125.272 35.0262 125.508 35.1829C125.743 35.3395 126.018 35.4179 126.332 35.4179C126.96 35.4179 127.601 35.222 128.255 34.8304C128.935 34.4387 129.589 33.9426 130.217 33.342C130.845 32.7415 131.407 32.1148 131.905 31.462C132.402 30.7832 132.768 30.1565 133.004 29.582L133.514 29.9737C133.017 31.0704 132.337 32.154 131.473 33.2245C130.61 34.269 129.641 35.1307 128.569 35.8095C127.522 36.4884 126.436 36.8279 125.311 36.8279Z" fill="#212121"/>
<path d="M20.0242 39.7279C19.6353 39.7279 19.2523 39.6131 18.925 39.3929L16.1703 37.5291L13.4168 39.3929C13.183 39.5494 12.9183 39.6542 12.6406 39.7003C12.3629 39.7464 12.0785 39.7329 11.8065 39.6604C11.5347 39.5884 11.2817 39.4588 11.0648 39.2803C10.8478 39.1018 10.6721 38.8786 10.5495 38.6261L9.09693 35.6357L5.78018 35.8771C5.73275 35.8795 5.68649 35.8818 5.63906 35.8818C5.3697 35.8817 5.10323 35.8262 4.85625 35.7189C4.60927 35.6116 4.38706 35.4547 4.20343 35.258C4.0198 35.0613 3.87869 34.8291 3.78886 34.5756C3.69903 34.3222 3.66241 34.053 3.68129 33.7848L3.91963 30.4713L0.927816 29.0217C0.674837 28.8986 0.451265 28.7229 0.272219 28.5062C0.0931723 28.2895 -0.0371794 28.037 -0.110026 27.7658C-0.182872 27.4945 -0.196515 27.2108 -0.150034 26.9338C-0.103552 26.6568 0.00197153 26.393 0.159405 26.1602L2.0247 23.4112L0.159405 20.6633C0.00119308 20.4308 -0.104867 20.167 -0.151527 19.8899C-0.198188 19.6128 -0.184352 19.3288 -0.110962 19.0575C-0.0376757 18.7865 0.0929615 18.5343 0.272149 18.3179C0.451336 18.1015 0.674909 17.926 0.927816 17.8031L3.91963 16.3534L3.68129 13.0435C3.66101 12.7631 3.70139 12.4817 3.79968 12.2184C3.89797 11.955 4.05188 11.7158 4.25095 11.5171C4.45003 11.3183 4.68963 11.1645 4.95348 11.0663C5.21734 10.9681 5.49928 10.9276 5.78018 10.9477L9.09693 11.1856L10.5495 8.19982C10.6731 7.94764 10.8494 7.72484 11.0666 7.54635C11.2837 7.36792 11.5366 7.238 11.8083 7.16532C12.08 7.09264 12.3642 7.07893 12.6417 7.12509C12.9191 7.1713 13.1835 7.27627 13.4168 7.43299L16.1703 9.29447L18.925 7.43299C19.1574 7.27487 19.4213 7.16884 19.6987 7.12229C19.9761 7.07574 20.2603 7.08967 20.5317 7.16319C21.0831 7.31113 21.5445 7.68858 21.7911 8.19982L23.2437 11.1856L26.564 10.9477C26.6079 10.9441 26.6565 10.9441 26.7016 10.9441C26.9713 10.9439 27.2382 10.9992 27.4855 11.1065C27.733 11.2139 27.9555 11.3709 28.1393 11.5679C28.3231 11.7649 28.4643 11.9976 28.554 12.2515C28.6437 12.5054 28.6799 12.775 28.6605 13.0435L28.4186 16.3534L31.4152 17.8031C31.9287 18.0504 32.3057 18.5107 32.4516 19.0575C32.5986 19.6078 32.5026 20.1936 32.1824 20.6633L30.3147 23.4112L32.1824 26.1602C32.5014 26.6312 32.5986 27.2158 32.4516 27.7649C32.3797 28.0365 32.2498 28.2894 32.071 28.5063C31.8921 28.7232 31.6684 28.899 31.4152 29.0217L28.4186 30.4713L28.6605 33.7848C28.7009 34.3505 28.491 34.9043 28.0913 35.309C27.8921 35.507 27.6527 35.66 27.3893 35.758C27.1259 35.856 26.8445 35.8966 26.564 35.8771L23.2437 35.6357L21.7911 38.6261C21.6683 38.879 21.4923 39.1023 21.2748 39.2808C21.0575 39.4594 20.804 39.5888 20.5317 39.6604C20.3666 39.7064 20.1957 39.7291 20.0242 39.7279Z" fill="#FFB5B5"/>
<path d="M16.5 30C20.0899 30 23 27.0899 23 23.5C23 19.9101 20.0899 17 16.5 17C12.9101 17 10 19.9101 10 23.5C10 27.0899 12.9101 30 16.5 30Z" fill="#232323"/>
</g>
<defs>
<clipPath id="clip0_1_11">
<rect width="134" height="47" fill="white"/>
</clipPath>
</defs>
</svg>
